/vscmnt/brussel_pixiu_data/_data_brussel/112/vsc11236/PredSimResults/SUBJ10mtu3D/worker7.mot
version=1
nRows=8
nColumns=50
inDegrees=yes
endheader
                time	         pelvis_tilt	         pelvis_list	     pelvis_rotation	           pelvis_tx	           pelvis_ty	           pelvis_tz	       hip_flexion_r	     hip_adduction_r	      hip_rotation_r	        knee_angle_r	       ankle_angle_r	         mtp_angle_r	       hip_flexion_l	     hip_adduction_l	      hip_rotation_l	        knee_angle_l	       ankle_angle_l	         mtp_angle_l	    lumbar_extension	      lumbar_bending	     lumbar_rotation	 ercspn_r/activation	 intobl_r/activation	 extobl_r/activation	    abd_r/activation	    add_r/activation	hamstrings_r/activation	bifemsh_r/activation	glut_max_r/activation	iliopsoas_r/activation	rect_fem_r/activation	  vasti_r/activation	gastroc_r/activation	 soleus_r/activation	tib_ant_r/activation	 ercspn_l/activation	 intobl_l/activation	 extobl_l/activation	    abd_l/activation	    add_l/activation	hamstrings_l/activation	bifemsh_l/activation	glut_max_l/activation	iliopsoas_l/activation	rect_fem_l/activation	  vasti_l/activation	gastroc_l/activation	 soleus_l/activation	tib_ant_l/activation	
          0.00000000	         -4.91005609	         -0.49097804	          7.03584937	          0.00000000	          0.82209577	         -0.01321465	         32.15965202	         -2.12272881	         -5.46019382	         -7.17629977	          4.05047990	          0.26507299	        -15.83058052	         -0.01861843	          2.39910159	         -4.24163860	          8.52883385	         24.89164170	         -7.11952804	         -0.95103442	         -5.23870775	          0.12449207	          0.18201831	          0.01000000	          0.01183268	          0.07877378	          0.13805438	          0.29508418	          0.01891066	          0.07621285	          0.01000001	          0.01000000	          0.01220891	          0.00999999	          0.30703610	          0.07390853	          0.00999999	          0.01000000	          0.06882863	          0.01000000	          0.01243799	          0.25591714	          0.01472097	          0.36974352	          0.01000001	          0.00999999	          0.33276823	          0.22782484	          0.02156635	
          0.01099612	         -4.92053670	         -0.45281152	          7.17242174	          0.01546992	          0.82068176	         -0.01312388	         31.99527753	         -1.99607731	         -5.09458322	         -8.61159998	          3.76296506	          0.26449533	        -16.03232105	         -0.08778283	          2.12818750	         -5.79020974	          7.92559884	         26.57163636	         -6.94156479	         -0.55599200	         -5.54436689	          0.10521033	          0.15382669	          0.01000000	          0.00999999	          0.12760980	          0.11667205	          0.24938061	          0.05949780	          0.06440874	          0.01000001	          0.00999999	          0.01960353	          0.01400123	          0.32259273	          0.11386307	          0.00999999	          0.01000000	          0.05816822	          0.01000009	          0.01755643	          0.21627982	          0.01244094	          0.31247640	          0.01000002	          0.00999999	          0.30490968	          0.21875244	          0.01822608	
          0.02199225	         -4.92364095	         -0.43077815	          7.26941665	          0.03123635	          0.81945701	         -0.01295697	         31.68507278	         -1.87458631	         -4.67083789	         -9.99959087	          3.36997988	          0.25396874	        -16.12574417	         -0.17548756	          1.82805698	         -7.56213393	          7.19838300	         28.21889403	         -6.74033143	         -0.13466770	         -5.82887055	          0.09465211	          0.13000149	          0.01000000	          0.03266891	          0.10784517	          0.09977813	          0.21075570	          0.10153596	          0.05443290	          0.00999999	          0.00999999	          0.01656726	          0.01183267	          0.39695055	          0.12671348	          0.00999999	          0.01000000	          0.04915892	          0.01000003	          0.01512666	          0.18278166	          0.01051405	          0.26407899	          0.01000000	          0.00999999	          0.26005148	          0.20478267	          0.01540316	
          0.03298837	         -4.92184992	         -0.41144222	          7.32025573	          0.04709867	          0.81855651	         -0.01267195	         31.30492436	         -1.74711316	         -4.32625430	        -11.23685787	          2.86129636	          0.24138266	        -16.04174417	         -0.26543005	          1.49378812	         -9.64580913	          6.33726902	         29.76588027	         -6.53922109	          0.28853442	         -6.08583463	          0.11295036	          0.10986641	          0.01000000	          0.08801845	          0.14002344	          0.08432416	          0.17811314	          0.12500191	          0.04600214	          0.01000000	          0.00999999	          0.01400127	          0.00999999	          0.43723737	          0.15342627	          0.00999999	          0.01000000	          0.04154502	          0.01000000	          0.01736000	          0.15447181	          0.01000000	          0.22317754	          0.01000002	          0.00999999	          0.21977381	          0.18766738	          0.01301747	
          0.04398449	         -4.91452307	         -0.39263907	          7.32844644	          0.06290651	          0.81809244	         -0.01228089	         30.94118087	         -1.61173477	         -4.06155202	        -12.51475031	          2.44623718	          0.22599731	        -15.72901175	         -0.35510700	          1.12000818	        -12.10502697	          5.34685054	         31.09114924	         -6.35143605	          0.71028052	         -6.31278225	          0.11574632	          0.09284993	          0.01000000	          0.12600041	          0.19103227	          0.07126375	          0.15052637	          0.13890295	          0.03887717	          0.01000000	          0.01000001	          0.01183271	          0.01000000	          0.45811263	          0.18602681	          0.00999999	          0.01000000	          0.03511039	          0.02316392	          0.02005290	          0.13054669	          0.01000003	          0.18861104	          0.01000001	          0.00999999	          0.18573449	          0.16067758	          0.01100128	
          0.05498061	         -4.90182000	         -0.37610917	          7.29935912	          0.07857115	          0.81812623	         -0.01179283	         30.62491936	         -1.46816170	         -3.85715450	        -13.89435341	          2.21193448	          0.21148871	        -15.15036728	         -0.44924079	          0.69886691	        -14.98600220	          4.26454508	         31.99754894	         -6.18018470	          1.12881205	         -6.51231796	          0.11700140	          0.07846901	          0.01000000	          0.15312081	          0.22673297	          0.06362414	          0.12721233	          0.14345386	          0.03285574	          0.01000000	          0.03218009	          0.01000002	          0.01000000	          0.46040121	          0.20719096	          0.00999999	          0.01000000	          0.02967237	          0.09515887	          0.02391205	          0.11032717	          0.01000000	          0.15939832	          0.01000000	          0.00999999	          0.15696730	          0.13579129	          0.00999999	
          0.06597674	         -4.88535992	         -0.35685260	          7.23375788	          0.09403249	          0.81871781	         -0.01123048	         30.30392305	         -1.32001238	         -3.69835348	        -15.27031541	          2.16405142	          0.19750437	        -14.27400426	         -0.54528725	          0.20779599	        -18.32078056	          3.09888828	         32.29738427	         -6.02672702	          1.53750965	         -6.68356538	          0.11263293	          0.06631546	          0.01000000	          0.16809791	          0.24860393	          0.06121220	          0.10750925	          0.13557486	          0.02776693	          0.01000000	          0.05714884	          0.01000000	          0.01000000	          0.44605641	          0.21752377	          0.00999999	          0.01000000	          0.02507661	          0.15951009	          0.02731401	          0.09323933	          0.00999999	          0.13471016	          0.01000000	          0.00999999	          0.13265567	          0.11475947	          0.00999999	
          0.07697286	         -4.86726005	         -0.33048697	          7.13199628	          0.10925936	          0.81988275	         -0.01061706	         29.90834232	         -1.16584261	         -3.55844840	        -16.51198934	          2.30063799	          0.18674047	        -13.08741726	         -0.64799106	         -0.35703725	        -22.08890497	          1.75599912	         31.96278025	         -5.89075126	          1.93165511	         -6.82518669	          0.10490494	          0.05604430	          0.01000000	          0.17347577	          0.25544357	          0.06204021	          0.09085785	          0.12165136	          0.02346630	          0.01000000	          0.07644091	          0.01000000	          0.01000000	          0.42385165	          0.21629377	          0.00999999	          0.01000000	          0.02119266	          0.21160842	          0.03572651	          0.07879811	          0.00999999	          0.11384579	          0.01000000	          0.00999999	          0.11210950	          0.09698513	          0.00999999	
